{
  "asset": {
    "version": "2.0",
    "generator": "THREE.GLTFExporter"
  },
  "scenes": [
    {
      "nodes": [
        0
      ]
    }
  ],
  "scene": 0,
  "nodes": [
    {
      "children": [
        7
      ],
      "matrix": [
        0.01,
        0,
        0,
        0,
        0,
        0.01,
        0,
        0,
        0,
        0,
        0.01,
        0,
        0,
        0,
        0,
        1
      ]
    },
    {
      "matrix": [
        1,
        0,
        0,
        0,
        0,
        1,
        0,
        0,
        0,
        0,
        1,
        0,
        -2.4675428134113133,
        263.3481970590503,
        -2.5721884464849296,
        1
      ],
      "name": "Cylinder 2",
      "mesh": 0
    },
    {
      "matrix": [
        1,
        0,
        0,
        0,
        0,
        1,
        0,
        0,
        0,
        0,
        1,
        0,
        0,
        -57.813703169484484,
        -1.5532302856445312,
        1
      ],
      "name": "Cylinder",
      "mesh": 1
    },
    {
      "matrix": [
        1,
        0,
        0,
        0,
        0,
        0.9319622030340018,
        -0.6119973817558294,
        0,
        0,
        0.5489054199551764,
        0.8358844656672544,
        0,
        -4.981366668662503,
        103.94244354746411,
        48.81314747384027,
        1
      ],
      "name": "Group",
      "children": [
        1,
        2
      ]
    },
    {
      "matrix": [
        0.5812186019207497,
        0.40685302134452483,
        -0.7047379341316322,
        0,
        -0.5734623443633283,
        0.8192319205190405,
        0,
        0,
        0.5773438112412781,
        0.4041406678688947,
        0.7094677189244619,
        0,
        0,
        0,
        0,
        1
      ],
      "name": "Directional Light",
      "extensions": {
        "KHR_lights_punctual": {
          "light": 0
        }
      }
    },
    {
      "matrix": [
        -0.7644765704258036,
        0,
        -0.6446515130440642,
        0,
        0.642789010380421,
        0.07596036315416355,
        -0.7622678737580685,
        0,
        0.048967963038708096,
        -0.9971108379861727,
        -0.058069917912393576,
        0,
        48.96796303870835,
        -997.1108379861815,
        -58.069917912403405,
        1
      ],
      "camera": 0
    },
    {
      "matrix": [
        1,
        0,
        0,
        0,
        0,
        1,
        0,
        0,
        0,
        0,
        1,
        0,
        0,
        1,
        0,
        1
      ],
      "name": "Default Ambient Light"
    },
    {
      "name": "Scene 1",
      "children": [
        3,
        4,
        5,
        6
      ]
    }
  ],
  "bufferViews": [
    {
      "buffer": 0,
      "byteOffset": 0,
      "byteLength": 18720,
      "target": 34962,
      "byteStride": 12
    },
    {
      "buffer": 0,
      "byteOffset": 18720,
      "byteLength": 18720,
      "target": 34962,
      "byteStride": 12
    },
    {
      "buffer": 0,
      "byteOffset": 37440,
      "byteLength": 12480,
      "target": 34962,
      "byteStride": 8
    },
    {
      "buffer": 0,
      "byteOffset": 49920,
      "byteLength": 17280,
      "target": 34963
    },
    {
      "buffer": 0,
      "byteOffset": 67200,
      "byteLength": 70656,
      "target": 34962,
      "byteStride": 12
    },
    {
      "buffer": 0,
      "byteOffset": 137856,
      "byteLength": 70656,
      "target": 34962,
      "byteStride": 12
    },
    {
      "buffer": 0,
      "byteOffset": 208512,
      "byteLength": 35328,
      "target": 34963
    }
  ],
  "buffers": [
    {
      "byteLength": 243840,
      "uri": "data:application/octet-stream;base64,"
    }
  ],
  "accessors": [
    {
      "bufferView": 0,
      "componentType": 5126,
      "count": 1560,
      "max": [
        53.047157287597656,
        53.047157287597656,
        60.53616714477539
      ],
      "min": [
        -53.047157287597656,
        -53.047157287597656,
        -60.53616714477539
      ],
      "type": "VEC3"
    },
    {
      "bufferView": 1,
      "componentType": 5126,
      "count": 1560,
      "max": [
        1,
        1,
        1
      ],
      "min": [
        -1,
        -1,
        -1
      ],
      "type": "VEC3"
    },
    {
      "bufferView": 2,
      "componentType": 5126,
      "count": 1560,
      "max": [
        1,
        1
      ],
      "min": [
        0,
        0
      ],
      "type": "VEC2"
    },
    {
      "bufferView": 3,
      "componentType": 5123,
      "count": 8640,
      "max": [
        1558
      ],
      "min": [
        0
      ],
      "type": "SCALAR"
    },
    {
      "bufferView": 4,
      "componentType": 5126,
      "count": 5888,
      "max": [
        93.41162109375,
        332.9409484863281,
        97.58670806884766
      ],
      "min": [
        -93.41162109375,
        -278.9466247558594,
        -92.8961181640625
      ],
      "type": "VEC3"
    },
    {
      "bufferView": 5,
      "componentType": 5126,
      "count": 5888,
      "max": [
        1.0000001192092896,
        0.6286636590957642,
        1.0000001192092896
      ],
      "min": [
        -1.0000001192092896,
        -0.9999998807907104,
        -1.0000001192092896
      ],
      "type": "VEC3"
    },
    {
      "bufferView": 6,
      "componentType": 5125,
      "count": 8832,
      "max": [
        5887
      ],
      "min": [
        0
      ],
      "type": "SCALAR"
    }
  ],
  "meshes": [
    {
      "primitives": [
        {
          "mode": 4,
          "attributes": {
            "POSITION": 0,
            "NORMAL": 1,
            "TEXCOORD_0": 2
          },
          "extras": {
            "parameters": {
              "width": 106.09431342678909,
              "radialSegments": 64,
              "heightSegments": 1,
              "openEnded": false,
              "thetaStart": 0,
              "thetaLength": 360,
              "cornerRadius": 8,
              "cornerSegments": 8,
              "hollow": 0,
              "depth": 121.07233414586518,
              "height": 106.09431342678909,
              "radiusTop": 53.04715671339454,
              "radiusBottom": 53.04715671339454,
              "type": "CylinderGeometry"
            },
            "type": "CylinderGeometry"
          },
          "indices": 3
        }
      ]
    },
    {
      "primitives": [
        {
          "mode": 4,
          "attributes": {
            "POSITION": 4,
            "NORMAL": 5
          },
          "extras": {
            "type": "SubdivGeometry",
            "parameters": {
              "width": 193.9627380371094,
              "height": 611.8875732421874,
              "depth": 197.06919860839838
            }
          },
          "indices": 6
        }
      ]
    }
  ],
  "extensions": {
    "KHR_lights_punctual": {
      "lights": [
        {
          "name": "Directional Light",
          "color": [
            1,
            1,
            1
          ],
          "intensity": 0.7,
          "type": "directional"
        }
      ]
    }
  },
  "cameras": [
    {
      "type": "orthographic",
      "orthographic": {
        "xmag": 16.033752673104896,
        "ymag": 8.083683639357051,
        "zfar": 100000,
        "znear": 0
      }
    }
  ],
  "extensionsUsed": [
    "KHR_lights_punctual"
  ]
}